REM DIRINDEX 1\2,1\4,1\5,1\6,1\7,1\3\8,1\3\9,1\3\10
REM DIRNAME folder01,folder02,folder03,folder04,folder05,folder06,folder07,folder08,folder09,folder10
TITLE ""
FILE "DB4500_5th_4B_36.mp3" MP3
  TRACK 01 AUDIO
    TITLE "0:"
    INDEX 01 00:00:00
  TRACK 02 AUDIO
    TITLE "8:cjc113_3110"
    INDEX 01 00:00:03
  TRACK 03 AUDIO
    TITLE "0:"
    INDEX 01 00:00:74
  TRACK 04 AUDIO
    TITLE "9:cjc113_3111"
    INDEX 01 00:01:17
  TRACK 05 AUDIO
    TITLE "0:"
    INDEX 01 00:02:32
  TRACK 06 AUDIO
    TITLE "10:cjc113_3112"
    INDEX 01 00:02:49
  TRACK 07 AUDIO
    TITLE "0:"
    INDEX 01 00:05:54
  TRACK 08 AUDIO
    TITLE "8:cjc113_3113"
    INDEX 01 00:06:22
  TRACK 09 AUDIO
    TITLE "0:"
    INDEX 01 00:07:45
  TRACK 10 AUDIO
    TITLE "9:cjc113_3114"
    INDEX 01 00:07:64
  TRACK 11 AUDIO
    TITLE "0:"
    INDEX 01 00:09:24
  TRACK 12 AUDIO
    TITLE "10:cjc113_3115"
    INDEX 01 00:09:45
  TRACK 13 AUDIO
    TITLE "0:"
    INDEX 01 00:12:03
  TRACK 14 AUDIO
    TITLE "8:cjc113_3116"
    INDEX 01 00:12:48
  TRACK 15 AUDIO
    TITLE "0:"
    INDEX 01 00:13:53
  TRACK 16 AUDIO
    TITLE "9:cjc113_3117"
    INDEX 01 00:14:00
  TRACK 17 AUDIO
    TITLE "0:"
    INDEX 01 00:15:34
  TRACK 18 AUDIO
    TITLE "10:cjc113_3118"
    INDEX 01 00:15:56
  TRACK 19 AUDIO
    TITLE "0:"
    INDEX 01 00:19:48
  TRACK 20 AUDIO
    TITLE "8:cjc113_3119"
    INDEX 01 00:20:18
  TRACK 21 AUDIO
    TITLE "0:"
    INDEX 01 00:21:21
  TRACK 22 AUDIO
    TITLE "9:cjc113_3120"
    INDEX 01 00:21:39
  TRACK 23 AUDIO
    TITLE "0:"
    INDEX 01 00:23:32
  TRACK 24 AUDIO
    TITLE "10:cjc113_3121"
    INDEX 01 00:23:48
  TRACK 25 AUDIO
    TITLE "0:"
    INDEX 01 00:28:06
  TRACK 26 AUDIO
    TITLE "8:cjc113_3122"
    INDEX 01 00:28:53
  TRACK 27 AUDIO
    TITLE "0:"
    INDEX 01 00:29:60
  TRACK 28 AUDIO
    TITLE "9:cjc113_3123"
    INDEX 01 00:30:03
  TRACK 29 AUDIO
    TITLE "0:"
    INDEX 01 00:31:14
  TRACK 30 AUDIO
    TITLE "10:cjc113_3124"
    INDEX 01 00:31:33
  TRACK 31 AUDIO
    TITLE "0:"
    INDEX 01 00:36:23
  TRACK 32 AUDIO
    TITLE "8:cjc113_3125"
    INDEX 01 00:36:68
  TRACK 33 AUDIO
    TITLE "0:"
    INDEX 01 00:38:18
  TRACK 34 AUDIO
    TITLE "9:cjc113_3126"
    INDEX 01 00:38:33
  TRACK 35 AUDIO
    TITLE "0:"
    INDEX 01 00:39:45
  TRACK 36 AUDIO
    TITLE "10:cjc113_3127"
    INDEX 01 00:39:64
  TRACK 37 AUDIO
    TITLE "0:"
    INDEX 01 00:42:68
  TRACK 38 AUDIO
    TITLE "8:cjc113_3128"
    INDEX 01 00:43:39
  TRACK 39 AUDIO
    TITLE "0:"
    INDEX 01 00:44:48
  TRACK 40 AUDIO
    TITLE "9:cjc113_3129"
    INDEX 01 00:44:67
  TRACK 41 AUDIO
    TITLE "0:"
    INDEX 01 00:46:13
  TRACK 42 AUDIO
    TITLE "10:cjc113_3130"
    INDEX 01 00:46:33
  TRACK 43 AUDIO
    TITLE "0:"
    INDEX 01 00:48:63
  TRACK 44 AUDIO
    TITLE "8:cjc113_3131"
    INDEX 01 00:49:35
  TRACK 45 AUDIO
    TITLE "0:"
    INDEX 01 00:50:46
  TRACK 46 AUDIO
    TITLE "9:cjc113_3132"
    INDEX 01 00:50:64
  TRACK 47 AUDIO
    TITLE "0:"
    INDEX 01 00:52:06
  TRACK 48 AUDIO
    TITLE "10:cjc113_3133"
    INDEX 01 00:52:26
  TRACK 49 AUDIO
    TITLE "0:"
    INDEX 01 00:55:48
  TRACK 50 AUDIO
    TITLE "8:cjc113_3134"
    INDEX 01 00:56:20
  TRACK 51 AUDIO
    TITLE "0:"
    INDEX 01 00:57:39
  TRACK 52 AUDIO
    TITLE "9:cjc113_3135"
    INDEX 01 00:57:56
  TRACK 53 AUDIO
    TITLE "0:"
    INDEX 01 00:59:14
  TRACK 54 AUDIO
    TITLE "10:cjc113_3136"
    INDEX 01 00:59:36
  TRACK 55 AUDIO
    TITLE "0:"
    INDEX 01 01:03:08
  TRACK 56 AUDIO
    TITLE "8:cjc113_3137"
    INDEX 01 01:03:51
  TRACK 57 AUDIO
    TITLE "0:"
    INDEX 01 01:04:58
  TRACK 58 AUDIO
    TITLE "9:cjc113_3138"
    INDEX 01 01:05:03
  TRACK 59 AUDIO
    TITLE "0:"
    INDEX 01 01:06:04
  TRACK 60 AUDIO
    TITLE "10:cjc113_3139"
    INDEX 01 01:06:22
  TRACK 61 AUDIO
    TITLE "0:"
    INDEX 01 01:09:16
  TRACK 62 AUDIO
    TITLE "8:cjc113_3140"
    INDEX 01 01:09:59
  TRACK 63 AUDIO
    TITLE "0:"
    INDEX 01 01:11:15
  TRACK 64 AUDIO
    TITLE "9:cjc113_3141"
    INDEX 01 01:11:35
  TRACK 65 AUDIO
    TITLE "0:"
    INDEX 01 01:12:71
  TRACK 66 AUDIO
    TITLE "10:cjc113_3142"
    INDEX 01 01:13:14
  TRACK 67 AUDIO
    TITLE "0:"
    INDEX 01 01:18:00
  TRACK 68 AUDIO
    TITLE "8:cjc113_3143"
    INDEX 01 01:18:41
  TRACK 69 AUDIO
    TITLE "0:"
    INDEX 01 01:19:50
  TRACK 70 AUDIO
    TITLE "9:cjc113_3144"
    INDEX 01 01:20:00
  TRACK 71 AUDIO
    TITLE "0:"
    INDEX 01 01:21:33
  TRACK 72 AUDIO
    TITLE "10:cjc113_3145"
    INDEX 01 01:21:55
  TRACK 73 AUDIO
    TITLE "0:"
    INDEX 01 01:25:02
  TRACK 74 AUDIO
    TITLE "8:cjc113_3146"
    INDEX 01 01:25:51
  TRACK 75 AUDIO
    TITLE "0:"
    INDEX 01 01:26:54
  TRACK 76 AUDIO
    TITLE "9:cjc113_3147"
    INDEX 01 01:27:04
  TRACK 77 AUDIO
    TITLE "0:"
    INDEX 01 01:28:57
  TRACK 78 AUDIO
    TITLE "10:cjc113_3148"
    INDEX 01 01:29:05
  TRACK 79 AUDIO
    TITLE "0:"
    INDEX 01 01:32:21
  TRACK 80 AUDIO
    TITLE "8:cjc113_3149"
    INDEX 01 01:32:62
  TRACK 81 AUDIO
    TITLE "0:"
    INDEX 01 01:34:03
  TRACK 82 AUDIO
    TITLE "9:cjc113_3150"
    INDEX 01 01:34:24
  TRACK 83 AUDIO
    TITLE "0:"
    INDEX 01 01:36:29
  TRACK 84 AUDIO
    TITLE "10:cjc113_3151"
    INDEX 01 01:36:52
  TRACK 85 AUDIO
    TITLE "0:"
    INDEX 01 01:39:41
